PathFileType	4	(X/Y/Z)	E:\Qualisys_Data\Carbon_Farble_Plate\Data\Amateur_Runner\S14\T2\S14T2V23_c3d.trc
DataRate	CameraRate	NumFrames	NumMarkers	Units	OrigDataRate	OrigDataStartFrame	OrigNumFrames
200.000000	200.000000	4	39	mm	200.000000	247	330
Frame#	Time	LSHO			RSHO			LICST			RICST			LASIS			LHEEL			RASIS			LTROC			RTROC			SACR			LTH1			LSK4			LTH2			LTH3			RHM5			LSK2			LTH4			RTH1			LTOE			RTH2			RTH3			RTH4			LLEP			RLEP			LSK1			LSK3			RSK1			LHM5			RSK2			LFT1			RSK3			RSK4			LLME			RLME			RTOE			RHEEL			RFT1			RFT2			LFT2			
		X1	Y1	Z1	X2	Y2	Z2	X3	Y3	Z3	X4	Y4	Z4	X5	Y5	Z5	X6	Y6	Z6	X7	Y7	Z7	X8	Y8	Z8	X9	Y9	Z9	X10	Y10	Z10	X11	Y11	Z11	X12	Y12	Z12	X13	Y13	Z13	X14	Y14	Z14	X15	Y15	Z15	X16	Y16	Z16	X17	Y17	Z17	X18	Y18	Z18	X19	Y19	Z19	X20	Y20	Z20	X21	Y21	Z21	X22	Y22	Z22	X23	Y23	Z23	X24	Y24	Z24	X25	Y25	Z25	X26	Y26	Z26	X27	Y27	Z27	X28	Y28	Z28	X29	Y29	Z29	X30	Y30	Z30	X31	Y31	Z31	X32	Y32	Z32	X33	Y33	Z33	X34	Y34	Z34	X35	Y35	Z35	X36	Y36	Z36	X37	Y37	Z37	X38	Y38	Z38	X39	Y39	Z39	

248	1.235	1274.56298828125	1409.241577148438	-604.8673095703125	1387.101684570312	1415.907958984375	-331.9862670898438	1328.64697265625	957.6176147460938	-567.3253784179688	1380.095947265625	969.7174682617188	-297.6636657714844	1376.818725585938	911.7235107421876	-545.2559814453125	1502.741333007812	62.19795227050781	-441.778564453125	1404.678100585938	925.99658203125	-316.0838012695312	1261.086791992188	829.3092651367188	-578.6836547851562	1258.3359375	850.33740234375	-243.8506927490234	1215.923950195312	953.3397216796876	-422.6586608886719	1415.511474609375	628.848876953125	-583.669189453125	1459.571411132812	259.7254333496094	-525.3114624023438	1352.152954101562	599.7409057617188	-549.41357421875	1470.542358398438	549.9510498046875	-556.4293212890625	812.1376342773438	215.6869659423828	-268.9667358398438	1441.548950195312	355.5625305175781	-542.3387451171875	1401.969482421875	516.7033081054688	-532.55517578125	1336.087158203125	613.8861083984375	-260.0335388183594	1743.542724609375	116.4373397827148	-508.1985473632812	1261.494750976562	632.4595336914062	-244.6886291503906	1313.869262695312	516.9796752929688	-279.1278991699219	1233.154907226562	536.0178833007812	-262.5835876464844	1464.094482421875	461.3214416503906	-549.242919921875	1233.441284179688	462.1992797851562	-265.9433288574219	1521.32275390625	371.4375305175781	-549.1112670898438	1539.754028320312	271.3576354980469	-534.724365234375	1134.103759765625	392.2480773925781	-265.7047729492188	1676.401123046875	71.5637435913086	-557.1067504882812	1099.011840820312	470.5579223632812	-269.3608093261719	1520.68115234375	34.46439361572266	-422.9016723632812	1038.044677734375	356.0362243652344	-282.8286437988281	1012.288696289062	431.48388671875	-285.9253845214844	1543.451171875	91.4872817993164	-510.3623352050781	864.800048828125	342.7660827636719	-309.6509094238281	840.8975219726562	130.8141632080078	-314.2079467773438	841.7091674804688	385.0196228027344	-375.2554016113281	816.2896118164062	362.9800720214844	-404.17138671875	810.7907104492188	385.387451171875	-353.1687622070312	1505.119140625	32.40392684936523	-477.3135375976562
249	1.24	1294.96142578125	1403.606079101562	-606.4967041015625	1404.958862304688	1411.00146484375	-332.6903381347656	1347.230834960938	952.7615966796876	-568.095947265625	1398.690795898438	965.2139282226562	-297.7989196777344	1395.4375	907.8568725585938	-545.6625366210938	1507.577514648438	60.3431282043457	-441.3721618652344	1423.7294921875	921.7876586914062	-316.84814453125	1279.03076171875	823.915283203125	-578.323974609375	1277.822143554688	844.5689086914062	-244.5140380859375	1234.211547851562	948.1826171875	-423.1024169921875	1435.195190429688	625.4309692382812	-581.9262084960938	1473.906860351562	255.7408142089844	-524.30712890625	1371.98388671875	595.337646484375	-550.14453125	1490.17919921875	546.3621826171875	-555.9075927734375	836.8504638671875	216.9138488769531	-269.8477172851562	1458.187622070312	352.5619506835938	-542.0587158203125	1421.007690429688	512.77734375	-533.8250732421875	1359.3798828125	609.0131225585938	-260.2975463867188	1753.623413085938	98.50025177001952	-505.6355285644531	1284.42138671875	626.357177734375	-244.5905151367188	1339.1708984375	511.7767028808594	-278.5380554199219	1258.328125	529.4356079101562	-262.3431091308594	1482.895263671875	457.4089660644531	-549.156982421875	1259.455688476562	456.3170471191406	-265.4380493164062	1538.227294921875	366.5986633300781	-548.4161376953125	1554.21337890625	266.010986328125	-532.8028564453125	1159.869384765625	387.3125915527344	-265.9533386230469	1683.855346679688	57.84344100952148	-555.1814575195312	1125.760009765625	466.4517822265625	-269.0639343261719	1523.41943359375	32.88847732543945	-422.7597961425781	1062.8935546875	353.1419982910156	-283.485595703125	1038.785766601562	428.8177795410156	-286.3662719726562	1550.334594726562	87.3442153930664	-509.9225158691406	890.0484619140625	343.9767150878906	-310.6324768066406	864.2097778320312	132.1091003417969	-315.2378540039062	867.5023803710938	385.8966979980469	-376.6563110351562	841.674072265625	363.9047241210938	-405.3524475097656	836.458740234375	387.0740051269531	-353.8825073242188	1507.915161132812	31.95769691467285	-477.1820373535156
250	1.245	1315.265869140625	1397.57958984375	-608.3342895507812	1423.097778320312	1406.388916015625	-332.9148254394531	1364.986572265625	948.3651733398438	-569.4593505859375	1417.447631835938	960.50634765625	-298.1119995117188	1414.110107421875	903.7932739257812	-546.6622924804688	1511.309448242188	60.05726623535156	-441.5411682128906	1442.395141601562	917.2384643554688	-317.195068359375	1296.561767578125	818.1589965820312	-577.982177734375	1297.656005859375	839.0112915039062	-245.1582489013672	1252.629638671875	942.4595947265624	-424.1682434082031	1455.2646484375	622.6552124023438	-581.0761108398438	1487.350463867188	253.9190979003906	-523.6275024414062	1390.996337890625	591.7540283203125	-551.4869995117188	1509.4931640625	542.7392578125	-556.2657470703125	861.7924194335938	218.2754364013672	-271.1177062988281	1475.419555664062	351.5658874511719	-542.6980590820312	1441.167846679688	509.1203918457031	-533.7360229492188	1383.018188476562	604.2730712890625	-260.5881042480469	1760.588500976562	83.25321197509766	-503.4209289550781	1307.620849609375	619.9747314453125	-244.92431640625	1364.685424804688	506.6427917480469	-278.5677795410156	1283.278442382812	522.6498413085938	-262.2936401367188	1502.618896484375	453.9460144042969	-549.4388427734375	1285.628784179688	450.7383728027344	-264.9112548828125	1556.7646484375	361.489990234375	-547.4566040039062	1568.043090820312	261.1694030761719	-531.6813354492188	1186.177856445312	382.8402709960938	-265.7377014160156	1688.913208007812	49.26289749145508	-554.6779174804688	1153.153442382812	462.4407653808594	-269.1993103027344	1525.204833984375	31.70114135742188	-423.2668762207031	1088.909912109375	349.8660278320312	-284.4284057617188	1065.936645507812	426.2699279785156	-286.3837890625	1555.829345703125	84.33405303955078	-509.7410888671875	915.9756469726562	344.5263366699219	-311.7638854980469	888.6050415039062	132.8329467773438	-316.1183471679688	893.4801025390625	386.5919494628906	-378.2197265625	867.357666015625	364.7624816894531	-406.7675170898438	862.2108154296875	388.5829467773438	-355.382080078125	1510.083618164062	31.58147048950195	-476.9940795898438
251	1.25	1336.24853515625	1391.79248046875	-610.1625366210938	1440.921264648438	1401.647216796875	-332.8771362304688	1382.671142578125	943.0858764648438	-570.1187133789062	1436.046630859375	956.126220703125	-298.4681396484375	1432.17626953125	899.6885375976562	-547.5326538085938	1514.329345703125	60.84946060180664	-441.572265625	1461.0537109375	912.6647338867188	-317.7398071289062	1314.1533203125	812.4637451171875	-578.4909057617188	1317.472778320312	833.1353759765625	-245.6911468505859	1270.624145507812	937.1187133789062	-423.8365173339844	1474.861328125	620.3111572265625	-581.6441650390625	1500.97607421875	253.4728088378906	-523.1663818359375	1410.66796875	588.501708984375	-551.6927490234375	1529.204467773438	539.7198486328125	-556.72216796875	887.3145141601562	218.8004455566406	-272.1047668457031	1493.871826171875	350.9250793457031	-542.150634765625	1460.391235351562	506.3009948730469	-535.3296508789062	1406.9658203125	599.4382934570312	-260.9063415527344	1767.388793945312	75.33795166015625	-501.2476806640625	1331.655029296875	613.781982421875	-245.1806640625	1390.488525390625	501.3328552246094	-278.3811950683594	1309.161865234375	515.7955932617188	-262.2349243164062	1523.082885742188	452.0859985351562	-550.1809692382812	1313.345458984375	444.6763000488281	-263.0490417480469	1574.883178710938	357.8578186035156	-547.4686889648438	1581.686645507812	256.9228210449219	-530.6268310546875	1213.201416015625	378.1237487792969	-266.0378723144531	1692.870361328125	49.87843322753906	-556.1709594726562	1181.211547851562	458.2362365722656	-269.1592102050781	1527.240966796875	31.71446800231934	-422.9883422851562	1115.165283203125	346.7311706542969	-284.993896484375	1093.228271484375	423.2785034179688	-286.9081420898438	1560.966552734375	82.81175994873047	-509.1050720214844	942.453125	344.6507873535156	-312.5914611816406	913.6117553710938	133.4194183349609	-316.9918212890625	920.110595703125	387.2035827636719	-379.4219360351562	894.1964721679688	365.7677307128906	-407.943359375	888.9671020507812	389.426513671875	-356.5625610351562	1511.796142578125	32.58833312988281	-477.67431640625
